<?xml version="1.0" encoding="utf-8"?>
<!-- Generator: Adobe Illustrator 26.0.1, SVG Export Plug-In . SVG Version: 6.00 Build 0)  -->
<svg version="1.1" id="图层_1" xmlns="http://www.w3.org/2000/svg" xmlns:xlink="http://www.w3.org/1999/xlink" x="0px" y="0px"
	 width="500px" height="500px" viewBox="0 0 500 500" style="enable-background:new 0 0 500 500;" xml:space="preserve">
<style type="text/css">
	.st0{fill:#3D3AB9;}
	.st1{fill:url(#SVGID_1_);}
	.st2{fill:#FFFFFF;stroke:#42CEA5;stroke-width:3.5;stroke-miterlimit:10;}
</style>
<g>
	<g>
		<path class="st0" d="M417.9,417L90.6,382.6L125,55.3l255.3,26.8c39.7,4.2,68.6,39.8,64.4,79.5L417.9,417z"/>
		
			<linearGradient id="SVGID_1_" gradientUnits="userSpaceOnUse" x1="96.4116" y1="105.8183" x2="409.9369" y2="419.3436" gradientTransform="matrix(0.9945 0.1045 -0.1045 0.9945 -7.6075 -8.6189)">
			<stop  offset="6.709266e-08" style="stop-color:#42E596"/>
			<stop  offset="1" style="stop-color:#3BB3B7"/>
		</linearGradient>
		<path class="st1" d="M370.2,444.7L54.9,411.5L88,96.2l243.4,25.6c39.7,4.2,68.6,39.8,64.4,79.5L370.2,444.7z"/>
	</g>
	<g>
		<g>
			<path class="st0" d="M232.7,205.5c0.5-3,2.4-4.5,5.7-4.5H273c2.9,0,4.1,1.5,3.6,4.5l-24.8,111.4c-1,4.4-1.3,7.5-0.8,9.4
				c0.5,1.9,2.4,2.8,5.7,2.8h47.3c2.8,0,3.9,1.3,3.4,3.8l-4.7,21c-0.7,3.2-2.8,4.8-6.2,5c-10.2,0.8-19.9,1.4-29.2,1.9
				c-9.3,0.5-19.5,0.8-30.5,0.8c-14.3,0-23.8-2.7-28.5-8.1c-4.7-5.4-5.6-14.2-2.8-26.4L232.7,205.5z"/>
		</g>
		<g>
			<path class="st2" d="M212.3,185.9c0.5-3,2.4-4.5,5.7-4.5h34.7c2.9,0,4.1,1.5,3.6,4.5l-24.8,111.4c-1,4.4-1.3,7.5-0.8,9.4
				c0.5,1.9,2.4,2.8,5.7,2.8h47.3c2.8,0,3.9,1.3,3.4,3.8l-4.7,21c-0.7,3.2-2.8,4.8-6.2,5c-10.2,0.8-19.9,1.4-29.2,1.9
				c-9.3,0.5-19.5,0.8-30.5,0.8c-14.3,0-23.8-2.7-28.5-8.1c-4.7-5.4-5.6-14.2-2.8-26.4L212.3,185.9z"/>
		</g>
	</g>
</g>
<g>
</g>
<g>
</g>
<g>
</g>
<g>
</g>
<g>
</g>
<g>
</g>
<g>
</g>
<g>
</g>
<g>
</g>
<g>
</g>
<g>
</g>
<g>
</g>
<g>
</g>
<g>
</g>
<g>
</g>
</svg>
