<svg xmlns="http://www.w3.org/2000/svg" xmlns:xlink="http://www.w3.org/1999/xlink" width="256" height="256" viewBox="0 0 386.69 385.79"><defs><style>.a{fill:#3d3ab9;}.b{fill:url(#a);}.c{fill:#fff;}</style><linearGradient id="a" x1="101.65" y1="111.06" x2="404.75" y2="414.16" gradientTransform="translate(-35.48 17.65)" gradientUnits="userSpaceOnUse"><stop offset="0" stop-color="#42e596"/><stop offset="1" stop-color="#3bb3b7"/></linearGradient></defs><path class="a" d="M124.94,71.62H345.63A90.36,90.36,0,0,1,436,162V382.67a18,18,0,0,1-18,18H124.94a18,18,0,0,1-18-18V89.62a18,18,0,0,1,18-18Z" transform="translate(-30.48 -84.19) rotate(6)"/><path class="b" d="M88.58,111.92H297.27a90.36,90.36,0,0,1,90.36,90.36V411a18,18,0,0,1-18,18H88.58a18,18,0,0,1-18-18V129.92a18,18,0,0,1,18-18Z" transform="translate(-27.13 -79.57) rotate(6)"/><path class="a" d="M232.32,306.12c.28,1,1.63,1.53,4,1.53h17.56l22.77-102.13c.52-3-.69-4.51-3.62-4.51H254.66L233.12,297.6C231.92,302.67,232,305,232.32,306.12Z" transform="translate(-56.66 -57.1)"/><path class="a" d="M304.08,329.07H285.31l-1.23,5.51c-.86,3.95-3.58,6.14-7.84,6.33-10,.74-19.88,1.38-29.21,1.91s-19.61.79-30.62.79a84.73,84.73,0,0,1-12.24-.8,19,19,0,0,0,4.2,10.61q7,8.11,28.45,8.11,16.56,0,30.53-.79t29.23-1.91c3.45-.15,5.52-1.81,6.21-5l4.66-21Q308.21,329.08,304.08,329.07Z" transform="translate(-56.66 -57.1)"/><path class="c" d="M283.67,311.15H236.33c-5.17,0-6.86-2.23-7.38-4.11-.6-2.18-.35-5.53.76-10.22l24.83-111.35a2.64,2.64,0,0,0-.18-1.92,2.44,2.44,0,0,0-1.73-.46H218c-2.44,0-3.59.89-4,3.06l-27.18,121.6c-2.62,11.55-1.79,19.91,2.46,24.85s13.42,7.51,27.13,7.51c10.94,0,21.18-.26,30.43-.78s19.13-1.18,29.2-1.92c2.7-.12,4.11-1.22,4.63-3.59l4.65-21a1.87,1.87,0,0,0-.05-1.33C285.12,311.34,284.62,311.15,283.67,311.15Z" transform="translate(-56.66 -57.1)"/></svg>