<svg xmlns="http://www.w3.org/2000/svg" xmlns:xlink="http://www.w3.org/1999/xlink" width="256" height="256" viewBox="0 0 874.9 595.09"><defs><style>.a,.c{fill:#333;}.b{fill:none;stroke-width:5px;}.b,.c{stroke:#333;stroke-miterlimit:10;}.c{stroke-width:0.75px;}.d{fill:#3d3ab9;}.e{fill:url(#a);}.f{fill:#fff;}</style><linearGradient id="a" x1="339.6" y1="252.62" x2="642.69" y2="555.72" gradientTransform="translate(-24.08 16.99)" gradientUnits="userSpaceOnUse"><stop offset="0" stop-color="#42e596"/><stop offset="1" stop-color="#3bb3b7"/></linearGradient></defs><path class="a" d="M242,788.49c-2.56,3.16-6.21,4.6-10.79,4.6-7.09,0-12.41-4.31-13-10.89a105.9,105.9,0,0,1-.14-13.66c.34-7.87,5.46-12.28,13.14-12.28a13.26,13.26,0,0,1,10.34,4.16l-3.74,5a7.31,7.31,0,0,0-6.6-3.22c-3.89.15-6.3,1.88-6.6,7a94.25,94.25,0,0,0,.15,12.13c.49,4.65,3.1,5.89,6.45,5.89a8.17,8.17,0,0,0,7-3.42Z" transform="translate(-56.94 -198)"/><path class="a" d="M260.58,793.09c-8.51,0-11.07-5.59-11.07-13.51,0-7.63,2.41-13.42,11.07-13.42s11.13,5.69,11.13,13.42C271.71,787.5,269.2,793.09,260.58,793.09Zm0-21.63c-4.33,0-4.92,4.25-4.92,8.12s.84,8.16,4.92,8.16,5-4.2,5-8.16S265,771.46,260.58,771.46Z" transform="translate(-56.94 -198)"/><path class="a" d="M290.22,766.16a6,6,0,0,1,5.91,3.66v-14h6.06V792.5h-5.42l-.39-3.32a6.08,6.08,0,0,1-6.16,3.91c-7.63,0-10.14-5.69-10.14-13.42C280.08,771.75,282.59,766.16,290.22,766.16Zm1,21.63c4,0,4.82-3.66,4.92-8.12,0-3.91-.84-8.16-4.92-8.16s-5,4.2-5,8.16S286.83,787.79,291.21,787.79Z" transform="translate(-56.94 -198)"/><path class="a" d="M317.79,781.06c0,4.7,2,7,6.5,7a8.38,8.38,0,0,0,6.11-2.33l2.46,4.21c-2.81,2.53-5.86,3.12-9.41,3.12-8.07,0-11.67-4.46-11.67-13.51,0-8.17,3.35-13.42,11.38-13.42,7.34,0,10.83,4.75,10.83,12v2.92Zm10.34-4.26c0-3.51-1.77-5.74-5.17-5.74s-5.12,2.28-5.17,5.74Z" transform="translate(-56.94 -198)"/><path class="a" d="M385.19,792.5h-6.35l-4.53-17.43-5,17.43h-6.26L356,766.75h6.74l4.09,17.63,4.63-17.63h5.91l4.57,17.73,4.29-17.73h6.35Z" transform="translate(-56.94 -198)"/><path class="a" d="M406.26,762.25H400v-5.89h6.25Zm-6.15,30.25V766.75h6.05V792.5Z" transform="translate(-56.94 -198)"/><path class="a" d="M429.35,792.5h-3.54c-4.93,0-7.59-2.33-7.59-7.53V771.8h-3.34l-.5-5h3.84V759h6.06v7.72h5.07v5h-5.07v12.92c0,1.79.69,2.58,2.61,2.58h2.46Z" transform="translate(-56.94 -198)"/><path class="a" d="M453.38,792.5v-16c0-3.52-1.68-5.05-4.68-5.05s-4.68,1.68-4.68,5.1v16h-6V755.87h6.15l-.05,14.2a7.37,7.37,0,0,1,7-3.91c5.32,0,8.37,3.07,8.37,9.11V792.5Z" transform="translate(-56.94 -198)"/><path class="a" d="M492.42,779.62V792.5h-6.26V756.86h12.46c8.37,0,12.56,4.25,12.56,11.28,0,7.67-4.43,11.48-12.85,11.48Zm0-17.07V774h6c4.43,0,6.25-1.73,6.25-5.74s-2-5.69-6.25-5.69Z" transform="translate(-56.94 -198)"/><path class="a" d="M524.57,781.06c0,4.7,2,7,6.5,7a8.35,8.35,0,0,0,6.1-2.33l2.46,4.21c-2.8,2.53-5.86,3.12-9.4,3.12-8.08,0-11.67-4.46-11.67-13.51,0-8.17,3.35-13.42,11.37-13.42,7.34,0,10.84,4.75,10.84,12v2.92Zm10.34-4.26c0-3.51-1.78-5.74-5.17-5.74s-5.12,2.28-5.17,5.74Z" transform="translate(-56.94 -198)"/><path class="a" d="M564.54,771.85H562c-3.4,0-5.76,2.23-5.76,6.88V792.5h-6V766.75h5.67l.44,4.51a6.18,6.18,0,0,1,6.2-4.51h2Z" transform="translate(-56.94 -198)"/><path class="a" d="M588.27,768.69l-2.41,4.55a10.3,10.3,0,0,0-6-2c-3.05,0-4.13,1.54-4.13,2.82s.74,2.48,2.66,2.72l3.54.5c5.07.69,7.39,3.32,7.39,7.52,0,5.7-4.09,8.27-10.14,8.27a15.32,15.32,0,0,1-9.46-2.72l2.66-4.66a11.69,11.69,0,0,0,6.89,2.13c2.46,0,4-.84,4-2.77,0-1.29-.64-2.43-2.71-2.72l-3.54-.6c-4.63-.64-7.24-3-7.24-7.32,0-5.4,4.43-8.22,10.14-8.22A13.47,13.47,0,0,1,588.27,768.69Z" transform="translate(-56.94 -198)"/><path class="a" d="M604.32,762.25h-6.25v-5.89h6.25Zm-6.15,30.25V766.75h6.05V792.5Z" transform="translate(-56.94 -198)"/><path class="a" d="M631.16,768.69l-2.42,4.55a10.3,10.3,0,0,0-6-2c-3.05,0-4.13,1.54-4.13,2.82s.74,2.48,2.66,2.72l3.54.5c5.08.69,7.39,3.32,7.39,7.52,0,5.7-4.09,8.27-10.14,8.27a15.32,15.32,0,0,1-9.46-2.72l2.66-4.66a11.69,11.69,0,0,0,6.89,2.13c2.47,0,4-.84,4-2.77,0-1.29-.64-2.43-2.71-2.72l-3.54-.6c-4.63-.64-7.24-3-7.24-7.32,0-5.4,4.43-8.22,10.14-8.22A13.52,13.52,0,0,1,631.16,768.69Z" transform="translate(-56.94 -198)"/><path class="a" d="M653.41,792.5h-3.55c-4.92,0-7.58-2.33-7.58-7.53V771.8h-3.35l-.49-5h3.84V759h6.05v7.72h5.08v5h-5.08v12.92c0,1.79.69,2.58,2.61,2.58h2.47Z" transform="translate(-56.94 -198)"/><path class="a" d="M666.8,781.06c.05,4.7,2,7,6.5,7a8.35,8.35,0,0,0,6.1-2.33l2.46,4.21c-2.8,2.53-5.86,3.12-9.4,3.12-8.08,0-11.67-4.46-11.67-13.51,0-8.17,3.35-13.42,11.37-13.42,7.34,0,10.84,4.75,10.84,12v2.92Zm10.34-4.26c0-3.51-1.78-5.74-5.17-5.74s-5.12,2.28-5.17,5.74Z" transform="translate(-56.94 -198)"/><path class="a" d="M707.86,792.5v-16c0-3.32-1.68-5-4.68-5s-4.68,1.63-4.68,4.95V792.5h-6V766.75h5.66l.44,3.32a6.59,6.59,0,0,1,6.5-3.91c5.32,0,8.86,3.17,8.86,9.21V792.5Z" transform="translate(-56.94 -198)"/><path class="a" d="M742,790.12c-1.73,1.88-3.89,3-7.54,3-8.52,0-11.27-5.59-11.27-13.51,0-7.63,2.61-13.42,11.27-13.42a10.25,10.25,0,0,1,7.39,2.82l-2.76,4.71a6.25,6.25,0,0,0-4.63-2.23c-4.33,0-5.12,4.25-5.12,8.12s1,8.16,5.12,8.16a5.75,5.75,0,0,0,4.78-2.17Z" transform="translate(-56.94 -198)"/><path class="a" d="M755.37,781.06c0,4.7,2,7,6.49,7a8.36,8.36,0,0,0,6.11-2.33l2.46,4.21c-2.8,2.53-5.86,3.12-9.4,3.12-8.08,0-11.67-4.46-11.67-13.51,0-8.17,3.35-13.42,11.37-13.42,7.34,0,10.83,4.75,10.83,12v2.92Zm10.34-4.26c0-3.51-1.78-5.74-5.17-5.74s-5.13,2.28-5.17,5.74Z" transform="translate(-56.94 -198)"/><line class="b" x1="146.05" y1="580.26" x2="110.06" y2="580.26"/><line class="b" x1="776.06" y1="580.26" x2="740.08" y2="580.26"/><path class="c" d="M74.31,633.44l1.24,71a4.46,4.46,0,0,0,1.21,3,3.71,3.71,0,0,0,2.87,1.3h28.9l.21,12H76.57a16.62,16.62,0,0,1-6.95-1.5,17.67,17.67,0,0,1-5.72-4.11A20.7,20.7,0,0,1,60,709.08a20,20,0,0,1-1.52-7.51l-1.19-68.13Z" transform="translate(-56.94 -198)"/><path class="c" d="M140.59,633.18l16.84,25.71,16.06-25.71H193l-25.5,41,30.67,46.59H178.66l-20.58-31.33L138.6,720.76H119.05L148,674.17l-26.81-41Z" transform="translate(-56.94 -198)"/><path class="c" d="M228.33,645.45a3.81,3.81,0,0,0-3,1.24,4.43,4.43,0,0,0-1.1,3.2l.95,54.55a4.46,4.46,0,0,0,1.21,3,3.84,3.84,0,0,0,3,1.3h47.11l.21,12H226.37a16.49,16.49,0,0,1-7-1.5,17.86,17.86,0,0,1-5.66-4.11,21.94,21.94,0,0,1-3.93-6.07,19,19,0,0,1-1.58-7.38l-.86-49.07a18.87,18.87,0,0,1,1.33-7.5,20.59,20.59,0,0,1,3.72-6.07,16.83,16.83,0,0,1,5.51-4.11,16.1,16.1,0,0,1,7-1.51h50.38l.21,12Z" transform="translate(-56.94 -198)"/><path class="c" d="M285.87,652.63a19.05,19.05,0,0,1,1.33-7.5,20.59,20.59,0,0,1,3.72-6.07,16.66,16.66,0,0,1,5.57-4.11,16.29,16.29,0,0,1,6.89-1.51h36.79a16.49,16.49,0,0,1,7,1.51,18.57,18.57,0,0,1,5.72,4.11,20.05,20.05,0,0,1,5.46,13.57l.85,49.07a19.3,19.3,0,0,1-5,13.45,17.72,17.72,0,0,1-5.57,4.11,16.17,16.17,0,0,1-7,1.5H304.91a16.65,16.65,0,0,1-7-1.5,17.52,17.52,0,0,1-5.71-4.11,21.72,21.72,0,0,1-3.93-6.07,19,19,0,0,1-1.59-7.38Zm55.43-2.74a4.54,4.54,0,0,0-1.21-3.2,3.82,3.82,0,0,0-2.87-1.24H306.87a3.69,3.69,0,0,0-2.83,1.24,4.43,4.43,0,0,0-1.1,3.2l1,54.55a4.4,4.4,0,0,0,1.2,3,3.71,3.71,0,0,0,2.88,1.3h30.35a3.6,3.6,0,0,0,2.83-1.3,4.35,4.35,0,0,0,1.1-3Z" transform="translate(-56.94 -198)"/><path class="c" d="M423.81,633.44a16.45,16.45,0,0,1,7,1.51,17.75,17.75,0,0,1,5.66,4.11,21.57,21.57,0,0,1,3.93,6.07,19.35,19.35,0,0,1,1.59,7.5l.85,48.94a19,19,0,0,1-1.32,7.51,20.72,20.72,0,0,1-3.72,6.07,17,17,0,0,1-5.51,4.11,16.17,16.17,0,0,1-7,1.5H369.85l-1.52-87.32Zm-38.28,12,1.11,63.3H422a3.66,3.66,0,0,0,2.77-1.3,4.23,4.23,0,0,0,1.16-3l-1-54.55a4.45,4.45,0,0,0-1.26-3.2,3.92,3.92,0,0,0-2.82-1.24Z" transform="translate(-56.94 -198)"/><path class="c" d="M473.18,645.45a3.88,3.88,0,0,0-2.89,1.24,4.34,4.34,0,0,0-1.16,3.2L469.5,671h47.71l.21,12.14H469.71l.38,21.27a4.33,4.33,0,0,0,1.26,3,3.9,3.9,0,0,0,2.94,1.3h47.1l.21,12H471.22a16.25,16.25,0,0,1-6.89-1.5,18.53,18.53,0,0,1-5.71-4.11,20.08,20.08,0,0,1-3.93-6.07,19.87,19.87,0,0,1-1.53-7.38l-.85-49.07a19.59,19.59,0,0,1,1.26-7.5,19,19,0,0,1,3.72-6.07,17.61,17.61,0,0,1,5.57-4.11,15.9,15.9,0,0,1,6.84-1.51h50.37l.21,12Z" transform="translate(-56.94 -198)"/><path class="c" d="M589.68,684.48c-.81.34-1.57.65-2.29.91l16.39,35.37H585.7l-16-34.72H548.19l.6,34.72H532.16l-1.43-68.13a19.74,19.74,0,0,1,1.26-7.44,19.48,19.48,0,0,1,3.66-6.13,16.86,16.86,0,0,1,5.57-4.11,16.3,16.3,0,0,1,6.9-1.51h33.75a16.61,16.61,0,0,1,6.94,1.51,18.36,18.36,0,0,1,5.78,4.11A20,20,0,0,1,600,652.63l.25,14.1a19.62,19.62,0,0,1-1.26,7.5,19,19,0,0,1-3.72,6.07A18.5,18.5,0,0,1,589.68,684.48ZM583,649.89a4.46,4.46,0,0,0-1.27-3.2,4,4,0,0,0-2.93-1.24H551.6a3.84,3.84,0,0,0-3,1.24,4.47,4.47,0,0,0-1.1,3.2l.42,24h31.32a3.75,3.75,0,0,0,2.89-1.3,4.3,4.3,0,0,0,1.16-3.13Z" transform="translate(-56.94 -198)"/><path class="c" d="M671.77,634.36a20,20,0,0,1,5.72,4.11,19.27,19.27,0,0,1,3.93,6A20.17,20.17,0,0,1,683,652l.22,12.53A20,20,0,0,1,681.9,672a18.9,18.9,0,0,1-3.72,6.13,17.72,17.72,0,0,1-5.57,4.11,16.17,16.17,0,0,1-7,1.5l-31.19.13a3.75,3.75,0,0,0-2.77,1.24,4.32,4.32,0,0,0-1.16,3.2l.28,16.18a4.34,4.34,0,0,0,1.27,3,3.77,3.77,0,0,0,2.81,1.3h49.05l.21,12H632a16.49,16.49,0,0,1-7-1.5,17.86,17.86,0,0,1-5.66-4.11,22.17,22.17,0,0,1-3.93-6.07,19.26,19.26,0,0,1-1.58-7.51l-.19-10.7a18.7,18.7,0,0,1,1.33-7.5,20,20,0,0,1,3.71-6,18.52,18.52,0,0,1,5.52-4.11,15.57,15.57,0,0,1,7-1.56h31.08a3.84,3.84,0,0,0,3-1.24,4.3,4.3,0,0,0,1.1-3.07l-.31-18a4.63,4.63,0,0,0-1.21-3.2,4,4,0,0,0-3-1.24h-48l-.21-12.14h51.23A15.81,15.81,0,0,1,671.77,634.36Z" transform="translate(-56.94 -198)"/><path class="c" d="M693.27,652.24a19.67,19.67,0,0,1,1.26-7.51,19.11,19.11,0,0,1,3.72-6.06,17.91,17.91,0,0,1,5.57-4.12,16.17,16.17,0,0,1,7-1.5h36.78a16.65,16.65,0,0,1,7,1.5,17.7,17.7,0,0,1,5.71,4.12,20.65,20.65,0,0,1,3.87,6.06,20.17,20.17,0,0,1,1.53,7.51l.87,49.72a19.47,19.47,0,0,1-1.27,7.38,18.74,18.74,0,0,1-3.66,6,17.93,17.93,0,0,1-5.57,4.11A15.59,15.59,0,0,1,749.1,721H712.31a15.78,15.78,0,0,1-7-1.57,19.86,19.86,0,0,1-5.72-4.11,19,19,0,0,1-3.93-6,19.62,19.62,0,0,1-1.52-7.38Zm55.43-2.74a4.31,4.31,0,0,0-1.27-3.07,4,4,0,0,0-2.93-1.24H714.27a3.78,3.78,0,0,0-2.95,1.24,4.25,4.25,0,0,0-1.1,3.07l1,55.08a4.62,4.62,0,0,0,1.21,3.13,3.84,3.84,0,0,0,3,1.3h30.23a3.76,3.76,0,0,0,2.89-1.3,4.4,4.4,0,0,0,1.16-3.13Z" transform="translate(-56.94 -198)"/><path class="c" d="M775.94,652.24a19.67,19.67,0,0,1,1.26-7.51,19.11,19.11,0,0,1,3.72-6.06,17.91,17.91,0,0,1,5.57-4.12,16.17,16.17,0,0,1,7-1.5h36.78a16.65,16.65,0,0,1,6.95,1.5,17.7,17.7,0,0,1,5.71,4.12,20.65,20.65,0,0,1,3.87,6.06,20.17,20.17,0,0,1,1.53,7.51l.87,49.72a19.47,19.47,0,0,1-1.27,7.38,18.74,18.74,0,0,1-3.66,6,17.93,17.93,0,0,1-5.57,4.11,15.62,15.62,0,0,1-6.89,1.57H795a15.78,15.78,0,0,1-7-1.57,19.86,19.86,0,0,1-5.72-4.11,19,19,0,0,1-3.93-6,19.62,19.62,0,0,1-1.52-7.38Zm55.43-2.74a4.31,4.31,0,0,0-1.27-3.07,4,4,0,0,0-2.94-1.24H796.94a3.78,3.78,0,0,0-3,1.24,4.26,4.26,0,0,0-1.11,3.07l1,55.08a4.66,4.66,0,0,0,1.2,3.13,3.87,3.87,0,0,0,3,1.3h30.23a3.76,3.76,0,0,0,2.89-1.3,4.4,4.4,0,0,0,1.16-3.13Z" transform="translate(-56.94 -198)"/><path class="c" d="M931.46,701.7a19.5,19.5,0,0,1-1.27,7.38,19.76,19.76,0,0,1-3.66,6.07A16.71,16.71,0,0,1,914,720.76h-36.3a16.49,16.49,0,0,1-7-1.5,18.57,18.57,0,0,1-5.72-4.11,20.12,20.12,0,0,1-5.45-13.45L858.6,652a19.67,19.67,0,0,1,1.27-7.51,18.4,18.4,0,0,1,3.72-6,18.78,18.78,0,0,1,5.57-4.11,15.45,15.45,0,0,1,7-1.57h36.3a16.24,16.24,0,0,1,7.07,1.57,18.78,18.78,0,0,1,5.71,4.11,19.85,19.85,0,0,1,3.87,6,20.17,20.17,0,0,1,1.53,7.51Zm-52-56.77a3.84,3.84,0,0,0-2.89,1.24,4.3,4.3,0,0,0-1.16,3.2l.37,21.4h38.12l-.37-21.4a4.59,4.59,0,0,0-1.21-3.2,3.81,3.81,0,0,0-2.88-1.24Zm-3.09,59.51a4.34,4.34,0,0,0,1.27,3,3.89,3.89,0,0,0,2.93,1.3h30a3.6,3.6,0,0,0,2.83-1.3,4.35,4.35,0,0,0,1.1-3l-.38-21.53H876Z" transform="translate(-56.94 -198)"/><path class="d" d="M374.28,212.51H595a90.36,90.36,0,0,1,90.36,90.36V523.57a18,18,0,0,1-18,18H374.28a18,18,0,0,1-18-18V230.51a18,18,0,0,1,18-18Z" transform="translate(-14.67 -250.37) rotate(6)"/><path class="e" d="M337.92,252.82H546.61A90.36,90.36,0,0,1,637,343.18V551.87a18,18,0,0,1-18,18H337.92a18,18,0,0,1-18-18V270.82a18,18,0,0,1,18-18Z" transform="translate(-11.32 -245.76) rotate(6)"/><path class="d" d="M481.67,447c.28,1,1.63,1.53,4,1.53h17.56L526,346.42c.51-3-.69-4.51-3.63-4.51H504L482.47,438.5C481.26,443.57,481.37,445.92,481.67,447Z" transform="translate(-56.94 -198)"/><path class="d" d="M553.43,470H534.65l-1.22,5.51c-.87,4-3.58,6.15-7.84,6.33-10,.74-19.89,1.39-29.21,1.92s-19.62.79-30.63.79a84.49,84.49,0,0,1-12.23-.8,19,19,0,0,0,4.19,10.6q7,8.12,28.46,8.12,16.54,0,30.52-.79t29.24-1.92q5.16-.23,6.2-5l4.66-21C557.31,471.24,556.18,470,553.43,470Z" transform="translate(-56.94 -198)"/><path class="f" d="M533,452H485.67c-5.16,0-6.86-2.23-7.38-4.1-.6-2.19-.35-5.53.77-10.22l24.82-111.35a2.63,2.63,0,0,0-.18-1.92A2.37,2.37,0,0,0,502,324H467.31c-2.45,0-3.6.88-4,3.06l-27.18,121.6c-2.62,11.55-1.79,19.91,2.47,24.85S452,481,465.75,481c10.95,0,21.18-.27,30.43-.79s19.13-1.17,29.2-1.91c2.7-.12,4.11-1.22,4.63-3.59l4.66-21a1.8,1.8,0,0,0-.06-1.33C534.47,452.24,534,452,533,452Z" transform="translate(-56.94 -198)"/></svg>