<?xml version="1.0" encoding="utf-8"?>
<!-- Generator: Adobe Illustrator 26.0.1, SVG Export Plug-In . SVG Version: 6.00 Build 0)  -->
<svg version="1.1" id="LXCODER2008" xmlns="http://www.w3.org/2000/svg" xmlns:xlink="http://www.w3.org/1999/xlink" x="0px"
	 y="0px" width="1000px" height="1000px" viewBox="0 0 1000 1000" style="enable-background:new 0 0 1000 1000;"
	 xml:space="preserve">
<style type="text/css">
	.st0{display:none;}
	.st1{display:inline;fill:#FFFFFF;}
	.st2{display:inline;fill:none;stroke:#ADADAD;stroke-miterlimit:10;}
	.st3{fill:#333333;}
	.st4{fill:none;stroke:#333333;stroke-width:5;stroke-miterlimit:10;}
	.st5{fill:#333333;stroke:#333333;stroke-width:0.75;stroke-miterlimit:10;}
	.st6{fill:#3D3AB9;}
	.st7{fill:url(#SVGID_1_);}
	.st8{fill:#FFFFFF;stroke:#42CEA5;stroke-width:3.5;stroke-miterlimit:10;}
</style>
<g id="bg_-color" class="st0">
	<rect y="0" class="st1" width="1000" height="1000"/>
	<line class="st1" x1="0" y1="961.5" x2="1000" y2="961.5"/>
	<line class="st1" x1="0" y1="923.1" x2="1000" y2="923.1"/>
	<line class="st1" x1="0" y1="884.6" x2="1000" y2="884.6"/>
	<line class="st1" x1="0" y1="846.2" x2="1000" y2="846.2"/>
	<line class="st1" x1="0" y1="807.7" x2="1000" y2="807.7"/>
	<line class="st1" x1="0" y1="769.2" x2="1000" y2="769.2"/>
	<line class="st1" x1="0" y1="730.8" x2="1000" y2="730.8"/>
	<line class="st1" x1="0" y1="692.3" x2="1000" y2="692.3"/>
	<line class="st1" x1="0" y1="653.8" x2="1000" y2="653.8"/>
	<line class="st1" x1="0" y1="615.4" x2="1000" y2="615.4"/>
	<line class="st1" x1="0" y1="576.9" x2="1000" y2="576.9"/>
	<line class="st1" x1="0" y1="538.5" x2="1000" y2="538.5"/>
	<line class="st1" x1="0" y1="500" x2="1000" y2="500"/>
	<line class="st1" x1="0" y1="461.5" x2="1000" y2="461.5"/>
	<line class="st1" x1="0" y1="423.1" x2="1000" y2="423.1"/>
	<line class="st1" x1="0" y1="384.6" x2="1000" y2="384.6"/>
	<line class="st1" x1="0" y1="346.2" x2="1000" y2="346.2"/>
	<line class="st1" x1="0" y1="307.7" x2="1000" y2="307.7"/>
	<line class="st1" x1="0" y1="269.2" x2="1000" y2="269.2"/>
	<line class="st1" x1="0" y1="230.8" x2="1000" y2="230.8"/>
	<line class="st1" x1="0" y1="192.3" x2="1000" y2="192.3"/>
	<line class="st1" x1="0" y1="153.8" x2="1000" y2="153.8"/>
	<line class="st1" x1="0" y1="115.4" x2="1000" y2="115.4"/>
	<line class="st1" x1="0" y1="76.9" x2="1000" y2="76.9"/>
	<line class="st1" x1="0" y1="38.5" x2="1000" y2="38.5"/>
	<line class="st1" x1="961.5" y1="0" x2="961.5" y2="1000"/>
	<line class="st1" x1="923.1" y1="0" x2="923.1" y2="1000"/>
	<line class="st1" x1="884.6" y1="0" x2="884.6" y2="1000"/>
	<line class="st1" x1="846.2" y1="0" x2="846.2" y2="1000"/>
	<line class="st1" x1="807.7" y1="0" x2="807.7" y2="1000"/>
	<line class="st1" x1="769.2" y1="0" x2="769.2" y2="1000"/>
	<line class="st1" x1="730.8" y1="0" x2="730.8" y2="1000"/>
	<line class="st1" x1="692.3" y1="0" x2="692.3" y2="1000"/>
	<line class="st1" x1="653.8" y1="0" x2="653.8" y2="1000"/>
	<line class="st1" x1="615.4" y1="0" x2="615.4" y2="1000"/>
	<line class="st1" x1="576.9" y1="0" x2="576.9" y2="1000"/>
	<line class="st1" x1="538.5" y1="0" x2="538.5" y2="1000"/>
	<line class="st1" x1="500" y1="0" x2="500" y2="1000"/>
	<line class="st1" x1="461.5" y1="0" x2="461.5" y2="1000"/>
	<line class="st1" x1="423.1" y1="0" x2="423.1" y2="1000"/>
	<line class="st1" x1="384.6" y1="0" x2="384.6" y2="1000"/>
	<line class="st1" x1="346.2" y1="0" x2="346.2" y2="1000"/>
	<line class="st1" x1="307.7" y1="0" x2="307.7" y2="1000"/>
	<line class="st1" x1="269.2" y1="0" x2="269.2" y2="1000"/>
	<line class="st1" x1="230.8" y1="0" x2="230.8" y2="1000"/>
	<line class="st1" x1="192.3" y1="0" x2="192.3" y2="1000"/>
	<line class="st1" x1="153.8" y1="0" x2="153.8" y2="1000"/>
	<line class="st1" x1="115.4" y1="0" x2="115.4" y2="1000"/>
	<line class="st1" x1="76.9" y1="0" x2="76.9" y2="1000"/>
	<line class="st1" x1="38.5" y1="0" x2="38.5" y2="1000"/>
</g>
<g id="bg_00000017496065707844369260000005230658515867437979_" class="st0">
	<rect y="0" class="st2" width="1000" height="1000"/>
	<line class="st2" x1="0" y1="961.5" x2="1000" y2="961.5"/>
	<line class="st2" x1="0" y1="923.1" x2="1000" y2="923.1"/>
	<line class="st2" x1="0" y1="884.6" x2="1000" y2="884.6"/>
	<line class="st2" x1="0" y1="846.2" x2="1000" y2="846.2"/>
	<line class="st2" x1="0" y1="807.7" x2="1000" y2="807.7"/>
	<line class="st2" x1="0" y1="769.2" x2="1000" y2="769.2"/>
	<line class="st2" x1="0" y1="730.8" x2="1000" y2="730.8"/>
	<line class="st2" x1="0" y1="692.3" x2="1000" y2="692.3"/>
	<line class="st2" x1="0" y1="653.8" x2="1000" y2="653.8"/>
	<line class="st2" x1="0" y1="615.4" x2="1000" y2="615.4"/>
	<line class="st2" x1="0" y1="576.9" x2="1000" y2="576.9"/>
	<line class="st2" x1="0" y1="538.5" x2="1000" y2="538.5"/>
	<line class="st2" x1="0" y1="500" x2="1000" y2="500"/>
	<line class="st2" x1="0" y1="461.5" x2="1000" y2="461.5"/>
	<line class="st2" x1="0" y1="423.1" x2="1000" y2="423.1"/>
	<line class="st2" x1="0" y1="384.6" x2="1000" y2="384.6"/>
	<line class="st2" x1="0" y1="346.2" x2="1000" y2="346.2"/>
	<line class="st2" x1="0" y1="307.7" x2="1000" y2="307.7"/>
	<line class="st2" x1="0" y1="269.2" x2="1000" y2="269.2"/>
	<line class="st2" x1="0" y1="230.8" x2="1000" y2="230.8"/>
	<line class="st2" x1="0" y1="192.3" x2="1000" y2="192.3"/>
	<line class="st2" x1="0" y1="153.8" x2="1000" y2="153.8"/>
	<line class="st2" x1="0" y1="115.4" x2="1000" y2="115.4"/>
	<line class="st2" x1="0" y1="76.9" x2="1000" y2="76.9"/>
	<line class="st2" x1="0" y1="38.5" x2="1000" y2="38.5"/>
	<line class="st2" x1="961.5" y1="0" x2="961.5" y2="1000"/>
	<line class="st2" x1="923.1" y1="0" x2="923.1" y2="1000"/>
	<line class="st2" x1="884.6" y1="0" x2="884.6" y2="1000"/>
	<line class="st2" x1="846.2" y1="0" x2="846.2" y2="1000"/>
	<line class="st2" x1="807.7" y1="0" x2="807.7" y2="1000"/>
	<line class="st2" x1="769.2" y1="0" x2="769.2" y2="1000"/>
	<line class="st2" x1="730.8" y1="0" x2="730.8" y2="1000"/>
	<line class="st2" x1="692.3" y1="0" x2="692.3" y2="1000"/>
	<line class="st2" x1="653.8" y1="0" x2="653.8" y2="1000"/>
	<line class="st2" x1="615.4" y1="0" x2="615.4" y2="1000"/>
	<line class="st2" x1="576.9" y1="0" x2="576.9" y2="1000"/>
	<line class="st2" x1="538.5" y1="0" x2="538.5" y2="1000"/>
	<line class="st2" x1="500" y1="0" x2="500" y2="1000"/>
	<line class="st2" x1="461.5" y1="0" x2="461.5" y2="1000"/>
	<line class="st2" x1="423.1" y1="0" x2="423.1" y2="1000"/>
	<line class="st2" x1="384.6" y1="0" x2="384.6" y2="1000"/>
	<line class="st2" x1="346.2" y1="0" x2="346.2" y2="1000"/>
	<line class="st2" x1="307.7" y1="0" x2="307.7" y2="1000"/>
	<line class="st2" x1="269.2" y1="0" x2="269.2" y2="1000"/>
	<line class="st2" x1="230.8" y1="0" x2="230.8" y2="1000"/>
	<line class="st2" x1="192.3" y1="0" x2="192.3" y2="1000"/>
	<line class="st2" x1="153.8" y1="0" x2="153.8" y2="1000"/>
	<line class="st2" x1="115.4" y1="0" x2="115.4" y2="1000"/>
	<line class="st2" x1="76.9" y1="0" x2="76.9" y2="1000"/>
	<line class="st2" x1="38.5" y1="0" x2="38.5" y2="1000"/>
</g>
<g id="code_with">
	<g>
		<path class="st3" d="M242,788.5c-2.6,3.2-6.2,4.6-10.8,4.6c-7.1,0-12.4-4.3-13-10.9c-0.4-4.3-0.3-9.6-0.1-13.7
			c0.3-7.9,5.5-12.3,13.1-12.3c4.4,0,7.5,1.3,10.3,4.2l-3.7,5c-1.6-2.4-3.9-3.2-6.6-3.2c-3.9,0.1-6.3,1.9-6.6,7
			c-0.1,2.8-0.2,8.5,0.1,12.1c0.5,4.7,3.1,5.9,6.5,5.9c2.8-0.1,4.9-0.7,7-3.4L242,788.5z"/>
		<path class="st3" d="M260.6,793.1c-8.5,0-11.1-5.6-11.1-13.5c0-7.6,2.4-13.4,11.1-13.4c8.7,0,11.1,5.7,11.1,13.4
			C271.7,787.5,269.2,793.1,260.6,793.1z M260.6,771.5c-4.3,0-4.9,4.3-4.9,8.1c0,3.9,0.8,8.2,4.9,8.2c4.1,0,5-4.2,5-8.2
			C265.6,775.7,265,771.5,260.6,771.5z"/>
		<path class="st3" d="M290.2,766.2c2.8,0,4.8,1.2,5.9,3.7v-14h6.1v36.6h-5.4l-0.4-3.3c-1.2,2.9-3.4,3.9-6.2,3.9
			c-7.6,0-10.1-5.7-10.1-13.4C280.1,771.8,282.6,766.2,290.2,766.2z M291.2,787.8c4,0,4.8-3.7,4.9-8.1c0-3.9-0.8-8.2-4.9-8.2
			c-4.1,0-5,4.2-5,8.2C286.2,783.6,286.8,787.8,291.2,787.8z"/>
		<path class="st3" d="M317.8,781.1c0,4.7,2,7,6.5,7c2.3,0,4.3-0.6,6.1-2.3l2.5,4.2c-2.8,2.5-5.9,3.1-9.4,3.1
			c-8.1,0-11.7-4.5-11.7-13.5c0-8.2,3.3-13.4,11.4-13.4c7.3,0,10.8,4.8,10.8,12v2.9H317.8z M328.1,776.8c0-3.5-1.8-5.7-5.2-5.7
			c-3.4,0-5.1,2.3-5.2,5.7H328.1z"/>
		<path class="st3" d="M385.2,792.5h-6.4l-4.5-17.4l-5,17.4h-6.3l-7.1-25.7h6.7l4.1,17.6l4.6-17.6h5.9l4.6,17.7l4.3-17.7h6.4
			L385.2,792.5z"/>
		<path class="st3" d="M406.3,762.3H400v-5.9h6.3V762.3z M400.1,792.5v-25.7h6.1v25.7H400.1z"/>
		<path class="st3" d="M429.4,792.5h-3.5c-4.9,0-7.6-2.3-7.6-7.5v-13.2h-3.3l-0.5-5h3.8V759h6.1v7.7h5.1v5h-5.1v12.9
			c0,1.8,0.7,2.6,2.6,2.6h2.5V792.5z"/>
		<path class="st3" d="M453.4,792.5v-16c0-3.5-1.7-5-4.7-5c-2.9,0-4.7,1.7-4.7,5.1v16H438v-36.6h6.2l0,14.2c1.7-2.8,3.9-3.9,7-3.9
			c5.3,0,8.4,3.1,8.4,9.1v17.2H453.4z"/>
		<path class="st3" d="M492.4,779.6v12.9h-6.3v-35.6h12.5c8.4,0,12.6,4.3,12.6,11.3c0,7.7-4.4,11.5-12.9,11.5H492.4z M492.4,762.5
			V774h6c4.4,0,6.3-1.7,6.3-5.7c0-3.9-2-5.7-6.3-5.7H492.4z"/>
		<path class="st3" d="M524.6,781.1c0,4.7,2,7,6.5,7c2.3,0,4.3-0.6,6.1-2.3l2.5,4.2c-2.8,2.5-5.9,3.1-9.4,3.1
			c-8.1,0-11.7-4.5-11.7-13.5c0-8.2,3.3-13.4,11.4-13.4c7.3,0,10.8,4.8,10.8,12v2.9H524.6z M534.9,776.8c0-3.5-1.8-5.7-5.2-5.7
			c-3.4,0-5.1,2.3-5.2,5.7H534.9z"/>
		<path class="st3" d="M564.5,771.9H562c-3.4,0-5.8,2.2-5.8,6.9v13.8h-6v-25.7h5.7l0.4,4.5c0.9-2.8,3.2-4.5,6.2-4.5h2V771.9z"/>
		<path class="st3" d="M588.3,768.7l-2.4,4.6c-1.8-1.2-3.7-2-6-2c-3.1,0-4.1,1.5-4.1,2.8c0,1.3,0.7,2.5,2.7,2.7l3.5,0.5
			c5.1,0.7,7.4,3.3,7.4,7.5c0,5.7-4.1,8.3-10.1,8.3c-3.3,0-6.4-0.5-9.5-2.7l2.7-4.7c2.5,1.7,4.9,2.1,6.9,2.1c2.5,0,4-0.8,4-2.8
			c0-1.3-0.6-2.4-2.7-2.7l-3.5-0.6c-4.6-0.6-7.2-3-7.2-7.3c0-5.4,4.4-8.2,10.1-8.2C582.7,766.2,585.5,766.7,588.3,768.7z"/>
		<path class="st3" d="M604.3,762.3h-6.3v-5.9h6.3V762.3z M598.2,792.5v-25.7h6.1v25.7H598.2z"/>
		<path class="st3" d="M631.2,768.7l-2.4,4.6c-1.8-1.2-3.7-2-6-2c-3.1,0-4.1,1.5-4.1,2.8c0,1.3,0.7,2.5,2.7,2.7l3.5,0.5
			c5.1,0.7,7.4,3.3,7.4,7.5c0,5.7-4.1,8.3-10.1,8.3c-3.3,0-6.4-0.5-9.5-2.7l2.7-4.7c2.5,1.7,4.9,2.1,6.9,2.1c2.5,0,4-0.8,4-2.8
			c0-1.3-0.6-2.4-2.7-2.7l-3.5-0.6c-4.6-0.6-7.2-3-7.2-7.3c0-5.4,4.4-8.2,10.1-8.2C625.5,766.2,628.3,766.7,631.2,768.7z"/>
		<path class="st3" d="M653.4,792.5h-3.5c-4.9,0-7.6-2.3-7.6-7.5v-13.2h-3.3l-0.5-5h3.8V759h6.1v7.7h5.1v5h-5.1v12.9
			c0,1.8,0.7,2.6,2.6,2.6h2.5V792.5z"/>
		<path class="st3" d="M666.8,781.1c0,4.7,2,7,6.5,7c2.3,0,4.3-0.6,6.1-2.3l2.5,4.2c-2.8,2.5-5.9,3.1-9.4,3.1
			c-8.1,0-11.7-4.5-11.7-13.5c0-8.2,3.3-13.4,11.4-13.4c7.3,0,10.8,4.8,10.8,12v2.9H666.8z M677.1,776.8c0-3.5-1.8-5.7-5.2-5.7
			c-3.4,0-5.1,2.3-5.2,5.7H677.1z"/>
		<path class="st3" d="M707.9,792.5v-16c0-3.3-1.7-5-4.7-5c-2.9,0-4.7,1.6-4.7,4.9v16.1h-6.1v-25.7h5.7l0.4,3.3
			c1.2-2.7,3.5-3.9,6.5-3.9c5.3,0,8.9,3.2,8.9,9.2v17.1H707.9z"/>
		<path class="st3" d="M742,790.1c-1.7,1.9-3.9,3-7.5,3c-8.5,0-11.3-5.6-11.3-13.5c0-7.6,2.6-13.4,11.3-13.4c3.3,0,5.7,1.2,7.4,2.8
			l-2.8,4.7c-1.3-1.4-3-2.2-4.6-2.2c-4.3,0-5.1,4.3-5.1,8.1c0,3.9,1,8.2,5.1,8.2c2.3,0,3.6-0.8,4.8-2.2L742,790.1z"/>
		<path class="st3" d="M755.4,781.1c0,4.7,2,7,6.5,7c2.3,0,4.3-0.6,6.1-2.3l2.5,4.2c-2.8,2.5-5.9,3.1-9.4,3.1
			c-8.1,0-11.7-4.5-11.7-13.5c0-8.2,3.3-13.4,11.4-13.4c7.3,0,10.8,4.8,10.8,12v2.9H755.4z M765.7,776.8c0-3.5-1.8-5.7-5.2-5.7
			c-3.4,0-5.1,2.3-5.2,5.7H765.7z"/>
	</g>
	<line class="st4" x1="203" y1="778.3" x2="167" y2="778.3"/>
	<line class="st4" x1="833" y1="778.3" x2="797" y2="778.3"/>
</g>
<g>
	<g>
		<path class="st5" d="M74.3,633.4l1.2,71c0,1.1,0.4,2.1,1.2,3c0.8,0.9,1.7,1.3,2.9,1.3h28.9l0.2,12H76.6c-2.4,0-4.7-0.5-6.9-1.5
			c-2.2-1-4.1-2.4-5.7-4.1c-1.6-1.7-2.9-3.8-3.9-6.1c-1-2.3-1.5-4.8-1.5-7.5l-1.2-68.1H74.3z"/>
		<path class="st5" d="M140.6,633.2l16.8,25.7l16.1-25.7H193l-25.5,41l30.7,46.6h-19.5l-20.6-31.3l-19.5,31.3h-19.5l28.9-46.6
			l-26.8-41H140.6z"/>
		<path class="st5" d="M228.3,645.5c-1.2,0-2.2,0.4-3,1.2c-0.8,0.8-1.1,1.9-1.1,3.2l1,54.6c0,1.1,0.4,2.1,1.2,3
			c0.8,0.9,1.8,1.3,3,1.3h47.1l0.2,12h-50.4c-2.5,0-4.8-0.5-7-1.5c-2.2-1-4-2.4-5.7-4.1c-1.6-1.7-2.9-3.8-3.9-6.1
			c-1-2.3-1.5-4.8-1.6-7.4l-0.9-49.1c0-2.7,0.4-5.2,1.3-7.5c0.9-2.3,2.2-4.3,3.7-6.1c1.5-1.7,3.4-3.1,5.5-4.1c2.1-1,4.4-1.5,7-1.5
			h50.4l0.2,12H228.3z"/>
		<path class="st5" d="M285.9,652.6c0-2.7,0.4-5.2,1.3-7.5c0.9-2.3,2.2-4.3,3.7-6.1c1.5-1.7,3.4-3.1,5.6-4.1c2.2-1,4.5-1.5,6.9-1.5
			h36.8c2.5,0,4.8,0.5,7,1.5c2.2,1,4.1,2.4,5.7,4.1c1.6,1.7,3,3.8,3.9,6.1c1,2.3,1.5,4.8,1.5,7.5l0.9,49.1c0,2.6-0.4,5.1-1.3,7.4
			c-0.9,2.3-2.1,4.3-3.7,6.1c-1.6,1.7-3.4,3.1-5.6,4.1c-2.1,1-4.4,1.5-7,1.5h-36.8c-2.4,0-4.7-0.5-6.9-1.5c-2.2-1-4.1-2.4-5.7-4.1
			c-1.6-1.7-2.9-3.8-3.9-6.1c-1-2.3-1.5-4.8-1.6-7.4L285.9,652.6z M341.3,649.9c0-1.3-0.4-2.4-1.2-3.2c-0.8-0.8-1.7-1.2-2.9-1.2
			h-30.3c-1.1,0-2.1,0.4-2.8,1.2c-0.8,0.8-1.1,1.9-1.1,3.2l1,54.6c0,1.1,0.4,2.1,1.2,3c0.8,0.9,1.7,1.3,2.9,1.3h30.3
			c1.1,0,2.1-0.4,2.8-1.3c0.8-0.9,1.1-1.9,1.1-3L341.3,649.9z"/>
		<path class="st5" d="M423.8,633.4c2.5,0,4.8,0.5,7,1.5c2.2,1,4,2.4,5.7,4.1c1.6,1.7,2.9,3.8,3.9,6.1c1,2.3,1.5,4.8,1.6,7.5
			l0.9,48.9c0,2.7-0.4,5.2-1.3,7.5c-0.9,2.3-2.2,4.3-3.7,6.1c-1.5,1.7-3.4,3.1-5.5,4.1c-2.1,1-4.4,1.5-7,1.5h-55.5l-1.5-87.3H423.8z
			 M385.5,645.5l1.1,63.3H422c1.1,0,2-0.4,2.8-1.3c0.8-0.9,1.2-1.9,1.2-3l-1-54.6c0-1.3-0.4-2.4-1.3-3.2c-0.8-0.8-1.8-1.2-2.8-1.2
			H385.5z"/>
		<path class="st5" d="M473.2,645.5c-1.1,0-2.1,0.4-2.9,1.2c-0.8,0.8-1.2,1.9-1.2,3.2l0.4,21.1h47.7l0.2,12.1h-47.7l0.4,21.3
			c0,1.1,0.4,2.1,1.3,3c0.8,0.9,1.8,1.3,2.9,1.3h47.1l0.2,12h-50.4c-2.4,0-4.7-0.5-6.9-1.5c-2.2-1-4.1-2.4-5.7-4.1
			c-1.7-1.7-3-3.8-3.9-6.1c-1-2.3-1.5-4.8-1.5-7.4l-0.9-49.1c0-2.7,0.4-5.2,1.3-7.5c0.9-2.3,2.1-4.3,3.7-6.1
			c1.6-1.7,3.4-3.1,5.6-4.1c2.1-1,4.4-1.5,6.8-1.5h50.4l0.2,12H473.2z"/>
		<path class="st5" d="M589.7,684.5c-0.8,0.3-1.6,0.7-2.3,0.9l16.4,35.4h-18.1l-16-34.7h-21.5l0.6,34.7h-16.6l-1.4-68.1
			c0-2.6,0.4-5.1,1.3-7.4c0.9-2.3,2.1-4.4,3.7-6.1c1.5-1.7,3.4-3.1,5.6-4.1c2.2-1,4.5-1.5,6.9-1.5h33.7c2.4,0,4.7,0.5,6.9,1.5
			c2.2,1,4.1,2.4,5.8,4.1c1.6,1.7,3,3.8,3.9,6.1c1,2.3,1.5,4.8,1.5,7.5l0.2,14.1c0,2.7-0.4,5.2-1.3,7.5c-0.9,2.3-2.1,4.3-3.7,6.1
			C593.7,682,591.8,683.4,589.7,684.5z M583,649.9c0-1.3-0.4-2.4-1.3-3.2c-0.8-0.8-1.8-1.2-2.9-1.2h-27.2c-1.2,0-2.2,0.4-3,1.2
			c-0.8,0.8-1.1,1.9-1.1,3.2l0.4,24h31.3c1.1,0,2.1-0.4,2.9-1.3c0.8-0.9,1.2-1.9,1.2-3.1L583,649.9z"/>
		<path class="st5" d="M671.8,634.4c2.2,1,4.1,2.4,5.7,4.1c1.6,1.7,3,3.7,3.9,6c1,2.3,1.5,4.8,1.5,7.5l0.2,12.5
			c0,2.6-0.4,5.1-1.3,7.4c-0.9,2.3-2.1,4.4-3.7,6.1c-1.6,1.7-3.4,3.1-5.6,4.1c-2.1,1-4.4,1.5-7,1.5l-31.2,0.1c-1.1,0-2,0.4-2.8,1.2
			c-0.8,0.8-1.2,1.9-1.2,3.2l0.3,16.2c0,1.1,0.4,2.1,1.3,3c0.8,0.9,1.8,1.3,2.8,1.3h49l0.2,12h-52.2c-2.5,0-4.8-0.5-7-1.5
			c-2.2-1-4-2.4-5.7-4.1c-1.6-1.7-2.9-3.8-3.9-6.1c-1-2.3-1.5-4.8-1.6-7.5l-0.2-10.7c0-2.7,0.4-5.2,1.3-7.5c0.9-2.3,2.2-4.3,3.7-6
			c1.5-1.7,3.4-3.1,5.5-4.1c2.1-1,4.4-1.6,7-1.6h31.1c1.2,0,2.2-0.4,3-1.2c0.8-0.8,1.1-1.8,1.1-3.1l-0.3-18c0-1.3-0.4-2.4-1.2-3.2
			c-0.8-0.8-1.8-1.2-3-1.2h-48l-0.2-12.1h51.2C667.3,632.8,669.6,633.3,671.8,634.4z"/>
		<path class="st5" d="M693.3,652.2c0-2.7,0.4-5.2,1.3-7.5c0.9-2.3,2.1-4.3,3.7-6.1c1.6-1.7,3.4-3.1,5.6-4.1c2.1-1,4.4-1.5,7-1.5
			h36.8c2.4,0,4.7,0.5,6.9,1.5c2.2,1,4.1,2.4,5.7,4.1c1.6,1.7,2.9,3.8,3.9,6.1c1,2.3,1.5,4.8,1.5,7.5l0.9,49.7
			c0,2.6-0.4,5.1-1.3,7.4c-0.9,2.3-2.1,4.3-3.7,6c-1.5,1.7-3.4,3.1-5.6,4.1c-2.2,1-4.5,1.6-6.9,1.6h-36.8c-2.5,0-4.8-0.5-7-1.6
			c-2.2-1-4.1-2.4-5.7-4.1c-1.6-1.7-3-3.7-3.9-6c-1-2.3-1.5-4.8-1.5-7.4L693.3,652.2z M748.7,649.5c0-1.2-0.4-2.2-1.3-3.1
			c-0.8-0.8-1.8-1.2-2.9-1.2h-30.2c-1.2,0-2.2,0.4-3,1.2c-0.8,0.8-1.1,1.9-1.1,3.1l1,55.1c0,1.2,0.4,2.3,1.2,3.1
			c0.8,0.9,1.8,1.3,3,1.3h30.2c1.1,0,2.1-0.4,2.9-1.3c0.8-0.9,1.2-1.9,1.2-3.1L748.7,649.5z"/>
		<path class="st5" d="M775.9,652.2c0-2.7,0.4-5.2,1.3-7.5c0.9-2.3,2.1-4.3,3.7-6.1c1.6-1.7,3.4-3.1,5.6-4.1c2.1-1,4.4-1.5,7-1.5
			h36.8c2.4,0,4.7,0.5,6.9,1.5c2.2,1,4.1,2.4,5.7,4.1c1.6,1.7,2.9,3.8,3.9,6.1c1,2.3,1.5,4.8,1.5,7.5l0.9,49.7
			c0,2.6-0.4,5.1-1.3,7.4c-0.9,2.3-2.1,4.3-3.7,6c-1.5,1.7-3.4,3.1-5.6,4.1c-2.2,1-4.5,1.6-6.9,1.6H795c-2.5,0-4.8-0.5-7-1.6
			c-2.2-1-4.1-2.4-5.7-4.1c-1.6-1.7-3-3.7-3.9-6c-1-2.3-1.5-4.8-1.5-7.4L775.9,652.2z M831.4,649.5c0-1.2-0.4-2.2-1.3-3.1
			c-0.8-0.8-1.8-1.2-2.9-1.2h-30.2c-1.2,0-2.2,0.4-3,1.2c-0.8,0.8-1.1,1.9-1.1,3.1l1,55.1c0,1.2,0.4,2.3,1.2,3.1
			c0.8,0.9,1.8,1.3,3,1.3h30.2c1.1,0,2.1-0.4,2.9-1.3c0.8-0.9,1.2-1.9,1.2-3.1L831.4,649.5z"/>
		<path class="st5" d="M931.5,701.7c0,2.6-0.4,5.1-1.3,7.4c-0.9,2.3-2.1,4.3-3.7,6.1c-1.5,1.7-3.4,3.1-5.6,4.1c-2.2,1-4.5,1.5-7,1.5
			h-36.3c-2.5,0-4.8-0.5-7-1.5c-2.2-1-4.1-2.4-5.7-4.1c-1.7-1.7-3-3.8-3.9-6.1c-1-2.3-1.5-4.8-1.5-7.4l-0.9-49.7
			c0-2.7,0.4-5.2,1.3-7.5c0.9-2.3,2.1-4.3,3.7-6c1.6-1.7,3.4-3.1,5.6-4.1c2.1-1,4.4-1.6,7-1.6h36.3c2.5,0,4.9,0.5,7.1,1.6
			s4.1,2.4,5.7,4.1c1.6,1.7,2.9,3.7,3.9,6c1,2.3,1.5,4.8,1.5,7.5L931.5,701.7z M879.5,644.9c-1.1,0-2.1,0.4-2.9,1.2
			c-0.8,0.8-1.2,1.9-1.2,3.2l0.4,21.4h38.1l-0.4-21.4c0-1.3-0.4-2.4-1.2-3.2c-0.8-0.8-1.7-1.2-2.9-1.2H879.5z M876.4,704.4
			c0,1.1,0.4,2.1,1.3,3c0.8,0.9,1.8,1.3,2.9,1.3h30c1.1,0,2.1-0.4,2.8-1.3c0.8-0.9,1.1-1.9,1.1-3l-0.4-21.5H876L876.4,704.4z"/>
	</g>
</g>
<g id="logo">
	<g>
		<path class="st6" d="M667.9,550.6l-327.3-34.4L375,189l255.3,26.8c39.7,4.2,68.6,39.8,64.4,79.5L667.9,550.6z"/>
		
			<linearGradient id="SVGID_1_" gradientUnits="userSpaceOnUse" x1="334.2527" y1="240.1335" x2="647.778" y2="553.6588" gradientTransform="matrix(0.9945 0.1045 -0.1045 0.9945 19.8941 -33.3814)">
			<stop  offset="6.709266e-08" style="stop-color:#42E596"/>
			<stop  offset="1" style="stop-color:#3BB3B7"/>
		</linearGradient>
		<path class="st7" d="M620.2,578.4l-315.3-33.1L338,229.9l243.4,25.6c39.7,4.2,68.6,39.8,64.4,79.5L620.2,578.4z"/>
	</g>
	<g>
		<g>
			<path class="st6" d="M482.7,339.2c0.5-3,2.4-4.5,5.7-4.5H523c2.9,0,4.1,1.5,3.6,4.5l-24.8,111.4c-1,4.4-1.3,7.5-0.8,9.4
				c0.5,1.9,2.4,2.8,5.7,2.8h47.3c2.8,0,3.9,1.3,3.4,3.8l-4.7,21c-0.7,3.2-2.8,4.8-6.2,5c-10.2,0.8-19.9,1.4-29.2,1.9
				c-9.3,0.5-19.5,0.8-30.5,0.8c-14.3,0-23.8-2.7-28.5-8.1c-4.7-5.4-5.6-14.2-2.8-26.4L482.7,339.2z"/>
		</g>
		<g>
			<g>
				<path class="st8" d="M462.3,319.5c0.5-3,2.4-4.5,5.7-4.5h34.7c2.9,0,4.1,1.5,3.6,4.5l-24.8,111.4c-1,4.4-1.3,7.5-0.8,9.4
					c0.5,1.9,2.4,2.8,5.7,2.8h47.3c2.8,0,3.9,1.3,3.4,3.8l-4.7,21c-0.7,3.2-2.8,4.8-6.2,5c-10.2,0.8-19.9,1.4-29.2,1.9
					c-9.3,0.5-19.5,0.8-30.5,0.8c-14.3,0-23.8-2.7-28.5-8.1c-4.7-5.4-5.6-14.2-2.8-26.4L462.3,319.5z"/>
			</g>
		</g>
	</g>
</g>
<g>
</g>
<g>
</g>
<g>
</g>
<g>
</g>
<g>
</g>
</svg>
